<svg version="1.1" xmlns="http://www.w3.org/2000/svg" viewBox="-255.99999923706054 -3365.888146972656 5992.4478515625 4884.480224609375"><desc>Created with Snap</desc><defs></defs><g><g transform="matrix(21.3796,0,0,21.3796,1672.4249,-3116.0533)"><g><path fill="#F4F1DE" d="M88.885,60.824c1.599-5.598-1.045-8.978-3.795-10.171c-1.17-0.507-2.454-0.703-3.75-0.59   c0.241-3.13,0.141-5.168,0.137-5.207c0-9.249-14.49-16.497-32.989-16.5C29.99,28.359,15.5,35.607,15.502,44.777   c-0.031,0.59-0.68,14.58,6.272,25.849l-0.05,0.031c0.062,0.1,0.13,0.19,0.193,0.289c-7.366,2.613-11.397,6.215-11.397,10.227   c0,6.879,13.518,14.189,38.57,14.189s38.57-7.311,38.57-14.189c0-5.509-8.379-9.135-12.444-10.571   c0.311-0.504,0.61-1.019,0.904-1.562C85.148,69.148,87.998,63.929,88.885,60.824z M84.66,81.173   c0,5.292-14.608,11.189-35.57,11.189s-35.57-5.897-35.57-11.189c0-2.7,3.823-5.553,10.248-7.685   c5.082,6.042,12.863,8.881,24.164,8.881h0.977c11.435,0,19.512-3.032,24.59-9.234c0.097,0.061,0.2,0.115,0.313,0.154   C80.3,75.505,84.66,78.674,84.66,81.173z M73.893,66.829c-0.413,0.809-0.825,1.546-1.261,2.251   c-0.074,0.12-0.122,0.246-0.159,0.375c-4.378,6.754-11.876,9.914-23.564,9.914h-0.977c-11.614,0-19.072-3.176-23.442-9.97   c-0.036-0.11-0.082-0.218-0.145-0.32c-6.468-10.46-5.853-24.009-5.844-24.223c0-7.314,13.733-13.497,29.988-13.5   c16.256,0.003,29.989,6.186,29.991,13.577c0.001,0.028,0.137,2.854-0.317,6.865c-0.059,0.517,0.154,1.027,0.563,1.348   c0.409,0.321,0.955,0.408,1.442,0.229c1.28-0.468,2.604-0.458,3.729,0.03C84.729,53.767,87.34,55.31,86,60   c-1.145,4.009-4.366,6.042-9.573,6.042c-0.347,0-0.705-0.009-1.123-0.029C74.728,65.985,74.161,66.303,73.893,66.829z" style=""></path><path fill="#F4F1DE" d="M78.443,62.902c-0.496,0-0.96-0.245-1.24-0.655c-0.282-0.414-0.338-0.94-0.152-1.404   c0.37-0.919,0.66-1.939,0.863-3.031c0.057-0.305,0.207-0.584,0.429-0.801c0.872-0.848,2.214-1.131,3.243-0.685   c0.969,0.42,1.896,1.618,1.325,3.615c-0.312,1.095-1.308,2.938-4.457,2.961C78.451,62.902,78.447,62.902,78.443,62.902z" style=""></path><path fill="#F4F1DE" d="M48.042,34.856c-14.823,0-26.84,4.484-26.84,10.016s12.017,10.016,26.84,10.016   c14.823,0,26.839-4.484,26.839-10.016S62.865,34.856,48.042,34.856z M48.465,51.821l-11.613-7.379   c-1.05-0.667-1.629-1.486-1.629-2.305c0-0.819,0.579-1.638,1.628-2.306c0.777-0.494,1.789-0.744,3.006-0.744   c1.999,0,4.382,0.687,6.376,1.838l2.175,1.256l2.173-1.256c1.996-1.151,4.38-1.839,6.377-1.839c1.218,0,2.229,0.25,3.006,0.744   c1.05,0.667,1.628,1.485,1.628,2.305c0,0.819-0.578,1.639-1.628,2.306l-11.531,7.34c-0.003,0-0.013,0.002-0.026,0.002   L48.465,51.821z" style=""></path><path fill="#F4F1DE" d="M53.498,24.191c-0.34,0-0.682-0.115-0.963-0.351c-1.561-1.31-3.756-4.782-0.89-8.545   c0.619-0.812,1.376-1.65,2.109-2.46c1.568-1.734,3.52-3.893,3.375-5.239c-0.017-0.161-0.069-0.652-0.954-1.287   c-1.097-0.789-2.059-0.828-2.713-0.115C53,6.7,52.922,7.362,53.094,7.562c0.542,0.627,0.472,1.574-0.155,2.116   c-0.627,0.54-1.575,0.471-2.116-0.155c-1.237-1.433-1.055-3.734,0.424-5.352c1.296-1.418,3.823-2.346,6.676-0.298   c1.311,0.94,2.047,2.086,2.188,3.405c0.287,2.681-1.96,5.166-4.134,7.569c-0.723,0.799-1.405,1.555-1.947,2.266   c-1.837,2.411,0.194,4.229,0.432,4.429c0.634,0.532,0.717,1.479,0.185,2.113C54.352,24.009,53.926,24.191,53.498,24.191z" style=""></path><path fill="#F4F1DE" d="M45,27c-0.384,0-0.769-0.147-1.062-0.44c-0.585-0.586-0.584-1.536,0.002-2.121   c0.754-0.753,1.455-2.252,1.322-3.904c-0.148-1.835-1.26-3.512-3.305-4.983c-3.669-2.64-3.337-5.764-2.412-7.92   c0.676-1.575,2.702-2.557,4.818-2.329c2.463,0.263,4.248,2.037,4.775,4.745c0.159,0.813-0.373,1.601-1.186,1.759   c-0.814,0.161-1.601-0.373-1.759-1.186c-0.343-1.764-1.346-2.242-2.127-2.333c-0.947-0.109-1.674,0.325-1.765,0.526   c-0.756,1.762-0.335,3.049,1.407,4.302c3.479,2.502,4.391,5.285,4.543,7.178c0.225,2.786-1.041,5.118-2.193,6.268   C45.767,26.854,45.383,27,45,27z" style=""></path><path fill="#F4F1DE" d="M37.165,24.191c-0.295,0-0.594-0.087-0.854-0.268c-0.68-0.473-0.849-1.408-0.376-2.088   c1.1-1.583,0.479-2.611-2.083-5.101c-0.352-0.342-0.698-0.679-1.019-1.014c-2.347-2.447-1.27-5.246,0.027-6.531   c0.588-0.583,1.538-0.579,2.122,0.01c0.579,0.585,0.578,1.527,0,2.11c-0.416,0.435-0.963,1.313,0.016,2.334   c0.297,0.31,0.619,0.622,0.944,0.938c2.064,2.006,5.184,5.038,2.456,8.964C38.107,23.967,37.64,24.191,37.165,24.191z" style=""></path></g><desc>Created with Snap</desc><defs></defs></g><g><g transform="matrix(1.024,0,0,-1.024,0,0)"><path d="M147 351Q147 288 163 236Q180 185 209 148Q239 111 280 91Q321 71 370 71Q419 71 455 82Q491 94 525 114L554 35Q517 15 469 1Q422 -12 359 -12Q290 -12 233 13Q177 38 136 84Q95 131 72 197Q50 264 50 347Q50 427 72 494Q95 561 137 609Q179 658 238 685Q298 712 371 712Q422 712 462 702Q503 693 539 676L510 596Q479 611 446 620Q414 629 370 629Q322 629 281 610Q240 592 210 556Q180 520 163 468Q147 417 147 351ZM1060 260Q1060 299 1047 334Q1035 369 1012 395Q990 421 959 436Q929 452 893 452Q814 452 770 400Q726 348 726 262Q726 223 738 187Q751 152 773 125Q796 99 826 83Q857 68 893 68Q932 68 963 82Q994 96 1015 121Q1037 147 1048 182Q1060 217 1060 260ZM634 260Q634 323 654 373Q674 424 708 459Q743 494 790 513Q838 532 893 532Q947 532 994 513Q1042 494 1077 459Q1112 424 1132 374Q1152 324 1152 262Q1152 200 1132 149Q1113 99 1078 63Q1043 27 995 7Q948 -12 893 -12Q837 -12 789 8Q742 28 707 64Q673 100 653 150Q634 200 634 260ZM1590 719L1563 643Q1542 654 1518 663Q1494 672 1465 672Q1423 672 1397 645Q1372 619 1372 568L1372 501L1526 501L1526 423L1372 423L1372 0L1282 0L1282 423L1202 423L1202 501L1282 501L1282 562Q1282 606 1295 641Q1308 676 1331 701Q1354 726 1387 739Q1420 752 1459 752Q1501 752 1531 742Q1562 733 1590 719ZM1938 719L1911 643Q1890 654 1866 663Q1842 672 1813 672Q1771 672 1745 645Q1720 619 1720 568L1720 501L1874 501L1874 423L1720 423L1720 0L1630 0L1630 423L1550 423L1550 501L1630 501L1630 562Q1630 606 1643 641Q1656 676 1679 701Q1702 726 1735 739Q1768 752 1807 752Q1849 752 1879 742Q1910 733 1938 719ZM2389 223L2025 223Q2034 150 2076 109Q2118 68 2187 68Q2232 68 2268 77Q2304 87 2337 102L2358 25Q2322 8 2277 -2Q2232 -12 2176 -12Q2120 -12 2075 6Q2030 25 1998 59Q1967 94 1950 144Q1933 195 1933 260Q1933 318 1950 368Q1967 418 1998 454Q2029 491 2072 511Q2115 532 2168 532Q2224 532 2266 513Q2308 494 2336 461Q2364 428 2378 384Q2392 340 2392 291Q2392 256 2389 223ZM2166 454Q2107 454 2069 414Q2032 374 2024 296L2309 296Q2309 372 2271 413Q2233 454 2166 454ZM2933 223L2569 223Q2578 150 2620 109Q2662 68 2731 68Q2776 68 2812 77Q2848 87 2881 102L2902 25Q2866 8 2821 -2Q2776 -12 2720 -12Q2664 -12 2619 6Q2574 25 2542 59Q2511 94 2494 144Q2477 195 2477 260Q2477 318 2494 368Q2511 418 2542 454Q2573 491 2616 511Q2659 532 2712 532Q2768 532 2810 513Q2852 494 2880 461Q2908 428 2922 384Q2936 340 2936 291Q2936 256 2933 223ZM2710 454Q2651 454 2613 414Q2576 374 2568 296L2853 296Q2853 372 2815 413Q2777 454 2710 454ZM3006 59L3054 139Q3090 109 3135 90Q3180 71 3240 71Q3312 71 3354 101Q3396 131 3396 182Q3396 203 3390 221Q3384 239 3366 255Q3349 272 3317 288Q3286 305 3236 324Q3182 345 3144 365Q3107 386 3084 410Q3061 435 3051 464Q3041 494 3041 532Q3041 569 3056 602Q3072 635 3102 659Q3133 684 3177 698Q3222 712 3279 712Q3341 712 3390 699Q3439 687 3487 664L3452 583Q3418 603 3372 616Q3327 630 3277 630Q3211 630 3173 604Q3135 579 3135 537Q3135 517 3140 501Q3146 486 3162 471Q3179 457 3208 442Q3238 427 3287 409Q3345 387 3385 364Q3425 341 3449 315Q3473 289 3483 259Q3494 229 3494 193Q3494 144 3475 106Q3456 68 3422 41Q3389 15 3342 1Q3295 -12 3240 -12Q3167 -12 3107 7Q3047 27 3006 59ZM3714 740L3714 437Q3742 478 3784 505Q3827 532 3886 532Q3974 532 4017 479Q4061 426 4061 339L4061 0L3971 0L3971 329Q3971 386 3945 419Q3920 453 3872 453Q3849 453 3826 444Q3804 436 3784 421Q3764 406 3746 386Q3728 366 3714 344L3714 0L3624 0L3624 740L3714 740ZM4602 260Q4602 299 4589 334Q4577 369 4554 395Q4532 421 4501 436Q4471 452 4435 452Q4356 452 4312 400Q4268 348 4268 262Q4268 223 4280 187Q4293 152 4315 125Q4338 99 4368 83Q4399 68 4435 68Q4474 68 4505 82Q4536 96 4557 121Q4579 147 4590 182Q4602 217 4602 260ZM4176 260Q4176 323 4196 373Q4216 424 4250 459Q4285 494 4332 513Q4380 532 4435 532Q4489 532 4536 513Q4584 494 4619 459Q4654 424 4674 374Q4694 324 4694 262Q4694 200 4674 149Q4655 99 4620 63Q4585 27 4537 7Q4490 -12 4435 -12Q4379 -12 4331 8Q4284 28 4249 64Q4215 100 4195 150Q4176 200 4176 260ZM4774 450L4793 520Q4885 520 4908 447Q4915 458 4929 473Q4944 488 4965 501Q4986 514 5013 523Q5040 532 5073 532Q5118 532 5159 514Q5201 496 5232 462Q5264 428 5283 378Q5302 328 5302 265Q5302 203 5283 152Q5265 101 5233 64Q5202 28 5161 8Q5120 -12 5075 -12Q5028 -12 4988 6Q4949 25 4923 49L4923 -220L4833 -220L4833 387Q4833 421 4816 435Q4800 450 4774 450ZM5210 262Q5210 307 5197 342Q5185 378 5163 403Q5142 428 5113 441Q5085 454 5053 454Q5010 454 4975 432Q4941 411 4923 386L4923 130Q4949 103 4982 85Q5016 68 5057 68Q5091 68 5119 82Q5147 96 5167 121Q5188 147 5199 182Q5210 218 5210 262Z" fill="#F4F1DE" style=""></path></g></g><g transform="matrix(0.75,0,0,0.75,398.9759,1048.5761)"><g transform="matrix(1.024,0,0,-1.024,0,0)"><path d="M564 84Q575 49 588 39Q602 29 638 29L638 0L409 0L409 29L447 29Q476 29 476 54Q476 64 473 74L410 250L188 250L125 71Q121 57 121 51Q121 29 149 29L185 29L185 0L7 0L7 29Q33 29 47 34Q61 40 69 52Q78 65 87 91L299 660L355 660L564 84ZM201 284L398 284L300 556L297 556L201 284ZM892 0L737 573Q730 599 722 611Q715 623 701 627Q688 631 660 631L660 660L885 660L885 631L843 631Q831 631 825 627Q819 624 819 615Q819 612 823 594L949 123L952 123L1091 644L1146 644L1298 122L1302 122L1419 591Q1422 603 1422 612Q1422 622 1417 626Q1412 631 1399 631L1353 631L1353 660L1549 660L1549 631Q1519 631 1503 625Q1488 619 1479 604Q1470 590 1460 560L1304 0L1245 0L1095 510L1093 510L953 0L892 0ZM1617 -8L1604 192L1630 192Q1641 122 1688 72Q1735 22 1808 22Q1871 22 1906 59Q1942 96 1942 152Q1942 199 1914 230Q1886 261 1827 287L1781 306Q1698 341 1655 384Q1612 427 1612 500Q1612 584 1669 628Q1726 672 1815 672Q1872 672 1916 651Q1934 644 1941 644Q1949 644 1953 650Q1957 657 1960 669L1982 669L1992 492L1966 492Q1956 558 1919 598Q1882 638 1817 638Q1764 638 1732 609Q1701 581 1701 525Q1701 477 1729 449Q1757 421 1815 396L1863 376Q1916 353 1951 330Q1987 307 2010 269Q2033 232 2033 178Q2033 90 1972 39Q1912 -12 1809 -12Q1771 -12 1746 -7Q1721 -1 1693 9Q1675 17 1665 17Q1654 17 1648 10Q1643 3 1642 -8L1617 -8ZM2465 0L2465 29Q2513 29 2531 33Q2550 37 2555 48Q2560 60 2560 89L2560 627L2506 627Q2451 627 2424 616Q2397 606 2385 579Q2373 553 2364 498L2338 498L2338 660L2874 660L2874 498L2848 498Q2839 553 2826 579Q2814 606 2787 616Q2761 627 2707 627L2652 627L2652 89Q2652 60 2657 48Q2663 37 2682 33Q2701 29 2747 29L2747 0L2465 0ZM3205 480Q3241 480 3260 459Q3280 438 3280 401Q3280 371 3266 354Q3252 337 3223 337Q3198 337 3184 350Q3171 363 3171 384Q3171 396 3175 404Q3179 412 3187 421Q3195 430 3195 435Q3195 444 3182 444Q3163 444 3141 425Q3120 406 3104 373Q3088 341 3084 303L3084 83Q3084 57 3088 46Q3093 36 3108 32Q3123 29 3159 29L3159 0L2930 0L2930 29Q2963 29 2977 33Q2991 37 2994 47Q2998 57 2998 83L2998 381Q2998 407 2992 415Q2986 424 2969 424L2935 424L2935 454L3053 474L3081 474L3081 380L3082 380Q3104 422 3132 451Q3160 480 3205 480ZM3761 41L3768 16Q3749 4 3729 -3Q3709 -10 3677 -10Q3647 -10 3631 2Q3616 14 3613 54Q3576 22 3541 5Q3506 -11 3463 -11Q3408 -11 3373 14Q3339 40 3339 89Q3339 159 3410 211Q3481 263 3613 284L3613 342Q3613 393 3592 418Q3572 443 3522 443Q3487 443 3459 430Q3431 417 3431 404Q3431 397 3440 389Q3450 382 3455 374Q3461 367 3461 352Q3461 331 3449 318Q3437 306 3415 306Q3392 306 3378 320Q3365 334 3365 359Q3365 390 3385 417Q3406 444 3447 461Q3489 478 3549 478Q3625 478 3661 447Q3697 416 3697 339L3697 102Q3697 63 3705 48Q3714 34 3733 34Q3745 34 3761 41ZM3429 113Q3429 78 3449 60Q3469 43 3507 43Q3535 43 3560 55Q3586 67 3613 87L3613 252Q3520 232 3474 198Q3429 165 3429 113ZM3922 562Q3898 562 3882 577Q3867 593 3867 616Q3867 640 3882 656Q3898 672 3922 672Q3947 672 3962 656Q3977 640 3977 616Q3977 593 3961 577Q3946 562 3922 562ZM3814 0L3814 29Q3847 29 3861 33Q3875 37 3878 47Q3882 57 3882 83L3882 381Q3882 407 3876 415Q3871 424 3853 424L3819 424L3819 454L3940 474L3968 474L3968 83Q3968 57 3972 46Q3976 36 3989 32Q4003 29 4036 29L4036 0L3814 0ZM4560 83Q4560 58 4564 47Q4568 37 4582 33Q4596 29 4629 29L4629 0L4410 0L4410 29Q4442 29 4455 32Q4468 36 4472 46Q4476 56 4476 81L4476 324Q4476 372 4453 401Q4431 431 4383 431Q4344 431 4317 412Q4290 394 4265 360L4265 81Q4265 56 4269 45Q4273 35 4286 32Q4299 29 4330 29L4330 0L4111 0L4111 29Q4144 29 4158 33Q4172 37 4175 47Q4179 57 4179 83L4179 381Q4179 407 4173 415Q4167 424 4150 424L4116 424L4116 454L4234 474L4262 474L4262 400L4263 400Q4297 440 4336 459Q4375 479 4425 479Q4560 479 4560 335L4560 83ZM4805 562Q4781 562 4765 577Q4750 593 4750 616Q4750 640 4765 656Q4781 672 4805 672Q4830 672 4845 656Q4860 640 4860 616Q4860 593 4844 577Q4829 562 4805 562ZM4697 0L4697 29Q4730 29 4744 33Q4758 37 4761 47Q4765 57 4765 83L4765 381Q4765 407 4759 415Q4754 424 4736 424L4702 424L4702 454L4823 474L4851 474L4851 83Q4851 57 4855 46Q4859 36 4872 32Q4886 29 4919 29L4919 0L4697 0ZM5443 83Q5443 58 5447 47Q5451 37 5465 33Q5479 29 5512 29L5512 0L5293 0L5293 29Q5325 29 5338 32Q5351 36 5355 46Q5359 56 5359 81L5359 324Q5359 372 5336 401Q5314 431 5266 431Q5227 431 5200 412Q5173 394 5148 360L5148 81Q5148 56 5152 45Q5156 35 5169 32Q5182 29 5213 29L5213 0L4994 0L4994 29Q5027 29 5041 33Q5055 37 5058 47Q5062 57 5062 83L5062 381Q5062 407 5056 415Q5050 424 5033 424L4999 424L4999 454L5117 474L5145 474L5145 400L5146 400Q5180 440 5219 459Q5258 479 5308 479Q5443 479 5443 335L5443 83ZM6017 479Q6049 479 6069 461Q6090 443 6090 415Q6090 394 6079 381Q6068 368 6049 368Q6031 368 6020 378Q6009 388 6009 402Q6009 409 6011 416Q6013 423 6013 427Q6013 433 6007 438Q6001 443 5992 443Q5974 443 5951 412Q5978 375 5978 322Q5978 242 5923 204Q5869 167 5789 167Q5753 167 5722 174Q5674 148 5674 118Q5674 100 5694 88Q5715 76 5764 76L5836 76Q5930 76 5973 44Q6017 12 6017 -51Q6017 -132 5952 -172Q5887 -212 5785 -212Q5694 -212 5637 -181Q5581 -150 5581 -88Q5581 -54 5601 -31Q5621 -7 5667 11Q5637 21 5620 41Q5603 62 5603 87Q5603 114 5625 139Q5647 164 5689 185Q5600 223 5600 321Q5600 401 5656 440Q5713 479 5791 479Q5833 479 5870 467Q5907 456 5933 433Q5968 479 6017 479ZM5787 199Q5843 199 5866 231Q5890 263 5890 327Q5890 384 5867 415Q5845 446 5792 446Q5738 446 5715 413Q5692 381 5692 320Q5692 263 5713 231Q5735 199 5787 199ZM5814 3L5720 3Q5687 -10 5673 -33Q5660 -55 5660 -80Q5660 -126 5697 -154Q5735 -181 5797 -181Q5862 -181 5902 -153Q5942 -124 5942 -72Q5942 -33 5913 -15Q5884 3 5814 3Z" fill="#F4F1DE" style=""></path></g></g></g></svg>